<mxfile host="app.diagrams.net" modified="2023-12-24T09:19:24.811Z" agent="Mozilla/5.0 (Windows NT 10.0; Win64; x64) AppleWebKit/537.36 (KHTML, like Gecko) Chrome/109.0.0.0 Safari/537.36" etag="UAlMzAt9Zem_Z6zS5l-m" version="22.1.11" type="device">
  <diagram name="Page-1" id="03018318-947c-dd8e-b7a3-06fadd420f32">
    <mxGraphModel dx="3450" dy="3170" grid="1" gridSize="10" guides="1" tooltips="1" connect="1" arrows="1" fold="1" page="1" pageScale="1" pageWidth="850" pageHeight="1100" background="#ffffff" math="0" shadow="0">
      <root>
        <mxCell id="0" />
        <mxCell id="1" parent="0" />
        <mxCell id="96vDRccaFwVZ43e6inGg-3" value="" style="rounded=0;whiteSpace=wrap;html=1;fillColor=none;" vertex="1" parent="1">
          <mxGeometry x="-840" y="30" width="630" height="870" as="geometry" />
        </mxCell>
        <mxCell id="96vDRccaFwVZ43e6inGg-36" value="" style="rounded=0;whiteSpace=wrap;html=1;dashed=1;dashPattern=8 8;strokeWidth=3;" vertex="1" parent="1">
          <mxGeometry x="-775" y="230" width="165" height="240" as="geometry" />
        </mxCell>
        <mxCell id="96vDRccaFwVZ43e6inGg-13" value="" style="group" vertex="1" connectable="0" parent="1">
          <mxGeometry x="-770" y="235" width="540" height="800" as="geometry" />
        </mxCell>
        <mxCell id="96vDRccaFwVZ43e6inGg-34" value="" style="rounded=0;whiteSpace=wrap;html=1;dashed=1;dashPattern=8 8;strokeWidth=3;" vertex="1" parent="96vDRccaFwVZ43e6inGg-13">
          <mxGeometry x="-60" y="-25" width="600" height="825" as="geometry" />
        </mxCell>
        <mxCell id="96vDRccaFwVZ43e6inGg-32" value="" style="rounded=0;whiteSpace=wrap;html=1;dashed=1;dashPattern=8 8;strokeWidth=3;" vertex="1" parent="96vDRccaFwVZ43e6inGg-13">
          <mxGeometry x="-30" y="-15" width="210" height="775" as="geometry" />
        </mxCell>
        <mxCell id="96vDRccaFwVZ43e6inGg-11" value="" style="rounded=0;whiteSpace=wrap;html=1;" vertex="1" parent="96vDRccaFwVZ43e6inGg-13">
          <mxGeometry width="150" height="155" as="geometry" />
        </mxCell>
        <mxCell id="96vDRccaFwVZ43e6inGg-12" value="" style="rounded=0;whiteSpace=wrap;html=1;" vertex="1" parent="96vDRccaFwVZ43e6inGg-13">
          <mxGeometry x="15" y="180" width="120" height="35" as="geometry" />
        </mxCell>
        <mxCell id="96vDRccaFwVZ43e6inGg-33" value="" style="rounded=0;whiteSpace=wrap;html=1;dashed=1;dashPattern=8 8;strokeWidth=3;" vertex="1" parent="1">
          <mxGeometry x="-500" y="227.5" width="210" height="775" as="geometry" />
        </mxCell>
        <mxCell id="96vDRccaFwVZ43e6inGg-29" value="" style="rounded=0;whiteSpace=wrap;html=1;dashed=1;dashPattern=8 8;strokeWidth=3;" vertex="1" parent="1">
          <mxGeometry x="-520" y="135" width="250" height="75" as="geometry" />
        </mxCell>
        <mxCell id="96vDRccaFwVZ43e6inGg-30" value="" style="rounded=0;whiteSpace=wrap;html=1;dashed=1;dashPattern=8 8;strokeWidth=3;" vertex="1" parent="1">
          <mxGeometry x="-800" y="135" width="230" height="75" as="geometry" />
        </mxCell>
        <mxCell id="ChapqngZKYLoNn2sGD0E-16" value="&lt;font style=&quot;font-size: 100px;&quot;&gt;click wrap&lt;/font&gt;" style="rounded=0;whiteSpace=wrap;html=1;" parent="1" vertex="1">
          <mxGeometry x="1346" y="850" width="1044" height="970" as="geometry" />
        </mxCell>
        <mxCell id="MGEFJSL_kFgZjdyrria_-2" value="" style="whiteSpace=wrap;html=1;rounded=0;shadow=0;labelBackgroundColor=none;strokeColor=#000000;strokeWidth=1;fillColor=none;fontFamily=Verdana;fontSize=12;fontColor=#000000;align=center;comic=1;" parent="1" vertex="1">
          <mxGeometry x="1340" y="850" width="1060" height="1440" as="geometry" />
        </mxCell>
        <mxCell id="ChapqngZKYLoNn2sGD0E-15" value="" style="rounded=0;whiteSpace=wrap;html=1;" parent="1" vertex="1">
          <mxGeometry x="1350" y="1315" width="130" height="140" as="geometry" />
        </mxCell>
        <mxCell id="ChapqngZKYLoNn2sGD0E-14" value="" style="rounded=0;whiteSpace=wrap;html=1;" parent="1" vertex="1">
          <mxGeometry x="2260" y="1315" width="130" height="140" as="geometry" />
        </mxCell>
        <mxCell id="2QA1arj9xDiKxA1vwSwu-3" value="" style="rounded=0;whiteSpace=wrap;html=1;" parent="1" vertex="1">
          <mxGeometry x="1770" y="-580" width="640" height="390" as="geometry" />
        </mxCell>
        <mxCell id="2QA1arj9xDiKxA1vwSwu-2" value="" style="rounded=0;whiteSpace=wrap;html=1;" parent="1" vertex="1">
          <mxGeometry x="1765" y="-580" width="645" height="1120" as="geometry" />
        </mxCell>
        <mxCell id="2QA1arj9xDiKxA1vwSwu-1" value="" style="rounded=0;whiteSpace=wrap;html=1;dashed=1;dashPattern=1 4;" parent="1" vertex="1">
          <mxGeometry x="1760" y="-586" width="820" height="1176" as="geometry" />
        </mxCell>
        <mxCell id="677b7b8949515195-1" value="" style="whiteSpace=wrap;html=1;rounded=0;shadow=0;labelBackgroundColor=none;strokeColor=#000000;strokeWidth=1;fillColor=none;fontFamily=Verdana;fontSize=12;fontColor=#000000;align=center;comic=1;" parent="1" vertex="1">
          <mxGeometry x="20" y="35" width="1060" height="1440" as="geometry" />
        </mxCell>
        <mxCell id="677b7b8949515195-2" value="LOGO" style="whiteSpace=wrap;html=1;rounded=0;shadow=0;labelBackgroundColor=none;strokeWidth=1;fontFamily=Verdana;fontSize=28;align=center;comic=1;" parent="1" vertex="1">
          <mxGeometry x="35" y="45" width="190" height="50" as="geometry" />
        </mxCell>
        <mxCell id="677b7b8949515195-3" value="作品名、作家名" style="strokeWidth=1;shadow=0;dashed=0;align=center;html=1;shape=mxgraph.mockup.forms.searchBox;strokeColor=#999999;mainText=;strokeColor2=#008cff;fontColor=#666666;fontSize=17;align=left;spacingLeft=3;rounded=0;labelBackgroundColor=none;comic=1;" parent="1" vertex="1">
          <mxGeometry x="650" y="70" width="220" height="30" as="geometry" />
        </mxCell>
        <mxCell id="677b7b8949515195-4" value="Language" style="text;html=1;points=[];align=left;verticalAlign=top;spacingTop=-4;fontSize=14;fontFamily=Verdana" parent="1" vertex="1">
          <mxGeometry x="885" y="70" width="60" height="20" as="geometry" />
        </mxCell>
        <mxCell id="677b7b8949515195-5" value="會員登錄 / 註冊" style="text;html=1;points=[];align=left;verticalAlign=top;spacingTop=-4;fontSize=14;fontFamily=Verdana" parent="1" vertex="1">
          <mxGeometry x="960" y="70" width="60" height="20" as="geometry" />
        </mxCell>
        <mxCell id="677b7b8949515195-8" value="" style="whiteSpace=wrap;html=1;rounded=0;shadow=0;labelBackgroundColor=none;strokeWidth=1;fillColor=none;fontFamily=Verdana;fontSize=12;align=center;comic=1;" parent="1" vertex="1">
          <mxGeometry x="30" y="320" width="190" height="290" as="geometry" />
        </mxCell>
        <mxCell id="677b7b8949515195-9" value="" style="line;strokeWidth=1;html=1;rounded=0;shadow=0;labelBackgroundColor=none;fillColor=none;fontFamily=Verdana;fontSize=14;fontColor=#000000;align=center;comic=1;" parent="1" vertex="1">
          <mxGeometry x="20" y="80" width="1060" height="60" as="geometry" />
        </mxCell>
        <mxCell id="677b7b8949515195-10" value="" style="whiteSpace=wrap;html=1;rounded=0;shadow=0;labelBackgroundColor=none;strokeWidth=1;fillColor=none;fontFamily=Verdana;fontSize=12;align=center;comic=1;" parent="1" vertex="1">
          <mxGeometry x="40" y="125" width="1030" height="180" as="geometry" />
        </mxCell>
        <mxCell id="677b7b8949515195-16" value="" style="verticalLabelPosition=bottom;shadow=0;dashed=0;align=center;html=1;verticalAlign=top;strokeWidth=1;shape=mxgraph.mockup.graphics.simpleIcon;strokeColor=#999999;rounded=0;labelBackgroundColor=none;fontFamily=Verdana;fontSize=14;fontColor=#000000;comic=1;fixDash=0;" parent="1" vertex="1">
          <mxGeometry x="230" y="320" width="830" height="400" as="geometry" />
        </mxCell>
        <mxCell id="qy5zhYHzqHSsJufVuIio-6" value="廣告1" style="rounded=0;whiteSpace=wrap;html=1;" parent="1" vertex="1">
          <mxGeometry x="55" y="140" width="335" height="150" as="geometry" />
        </mxCell>
        <mxCell id="qy5zhYHzqHSsJufVuIio-2" value="" style="ellipse;whiteSpace=wrap;html=1;aspect=fixed;" parent="1" vertex="1">
          <mxGeometry x="45" y="195" width="40" height="40" as="geometry" />
        </mxCell>
        <mxCell id="qy5zhYHzqHSsJufVuIio-3" value="" style="triangle;whiteSpace=wrap;html=1;direction=south;rotation=90;" parent="1" vertex="1">
          <mxGeometry x="55" y="210" width="15" height="10" as="geometry" />
        </mxCell>
        <mxCell id="qy5zhYHzqHSsJufVuIio-4" value="" style="ellipse;whiteSpace=wrap;html=1;aspect=fixed;" parent="1" vertex="1">
          <mxGeometry x="1010" y="190" width="40" height="40" as="geometry" />
        </mxCell>
        <mxCell id="qy5zhYHzqHSsJufVuIio-5" value="" style="triangle;whiteSpace=wrap;html=1;direction=south;rotation=-90;" parent="1" vertex="1">
          <mxGeometry x="1022.5" y="205" width="15" height="10" as="geometry" />
        </mxCell>
        <mxCell id="qy5zhYHzqHSsJufVuIio-7" value="廣告1" style="rounded=0;whiteSpace=wrap;html=1;" parent="1" vertex="1">
          <mxGeometry x="390" y="140" width="340" height="150" as="geometry" />
        </mxCell>
        <mxCell id="qy5zhYHzqHSsJufVuIio-8" value="廣告1" style="rounded=0;whiteSpace=wrap;html=1;" parent="1" vertex="1">
          <mxGeometry x="730" y="140" width="330" height="150" as="geometry" />
        </mxCell>
        <mxCell id="qy5zhYHzqHSsJufVuIio-15" value="&lt;font style=&quot;font-size: 18px;&quot;&gt;網站標語&lt;/font&gt;" style="whiteSpace=wrap;html=1;rounded=0;shadow=0;labelBackgroundColor=none;strokeWidth=1;fontFamily=Verdana;fontSize=28;align=left;comic=1;strokeColor=none;" parent="1" vertex="1">
          <mxGeometry x="240" y="70" width="190" height="25" as="geometry" />
        </mxCell>
        <mxCell id="qy5zhYHzqHSsJufVuIio-21" value="" style="line;strokeWidth=2;html=1;" parent="1" vertex="1">
          <mxGeometry x="25" y="1370" width="1060" height="10" as="geometry" />
        </mxCell>
        <mxCell id="qy5zhYHzqHSsJufVuIio-22" value="" style="shape=ext;double=1;rounded=0;whiteSpace=wrap;html=1;" parent="1" vertex="1">
          <mxGeometry x="250" y="350" width="130" height="180" as="geometry" />
        </mxCell>
        <mxCell id="qy5zhYHzqHSsJufVuIio-25" value="2023年12月05號" style="rounded=0;whiteSpace=wrap;html=1;strokeColor=none;" parent="1" vertex="1">
          <mxGeometry x="240" y="320" width="150" height="25" as="geometry" />
        </mxCell>
        <mxCell id="qy5zhYHzqHSsJufVuIio-35" value="" style="shape=ext;double=1;rounded=0;whiteSpace=wrap;html=1;" parent="1" vertex="1">
          <mxGeometry x="909" y="770" width="130" height="170" as="geometry" />
        </mxCell>
        <mxCell id="qy5zhYHzqHSsJufVuIio-36" value="" style="shape=ext;double=1;rounded=0;whiteSpace=wrap;html=1;" parent="1" vertex="1">
          <mxGeometry x="744.5" y="770" width="130" height="170" as="geometry" />
        </mxCell>
        <mxCell id="qy5zhYHzqHSsJufVuIio-37" value="" style="shape=ext;double=1;rounded=0;whiteSpace=wrap;html=1;" parent="1" vertex="1">
          <mxGeometry x="580.5" y="770" width="130" height="170" as="geometry" />
        </mxCell>
        <mxCell id="qy5zhYHzqHSsJufVuIio-38" value="" style="shape=ext;double=1;rounded=0;whiteSpace=wrap;html=1;" parent="1" vertex="1">
          <mxGeometry x="415.5" y="770" width="130" height="170" as="geometry" />
        </mxCell>
        <mxCell id="qy5zhYHzqHSsJufVuIio-39" value="" style="shape=ext;double=1;rounded=0;whiteSpace=wrap;html=1;" parent="1" vertex="1">
          <mxGeometry x="251.5" y="770" width="130" height="170" as="geometry" />
        </mxCell>
        <mxCell id="qy5zhYHzqHSsJufVuIio-40" value="" style="shape=ext;double=1;rounded=0;whiteSpace=wrap;html=1;" parent="1" vertex="1">
          <mxGeometry x="907.5" y="980" width="130" height="170" as="geometry" />
        </mxCell>
        <mxCell id="qy5zhYHzqHSsJufVuIio-41" value="" style="shape=ext;double=1;rounded=0;whiteSpace=wrap;html=1;" parent="1" vertex="1">
          <mxGeometry x="743" y="980" width="130" height="170" as="geometry" />
        </mxCell>
        <mxCell id="qy5zhYHzqHSsJufVuIio-42" value="" style="shape=ext;double=1;rounded=0;whiteSpace=wrap;html=1;" parent="1" vertex="1">
          <mxGeometry x="579" y="980" width="130" height="170" as="geometry" />
        </mxCell>
        <mxCell id="qy5zhYHzqHSsJufVuIio-43" value="" style="shape=ext;double=1;rounded=0;whiteSpace=wrap;html=1;" parent="1" vertex="1">
          <mxGeometry x="414" y="980" width="130" height="170" as="geometry" />
        </mxCell>
        <mxCell id="qy5zhYHzqHSsJufVuIio-44" value="" style="shape=ext;double=1;rounded=0;whiteSpace=wrap;html=1;" parent="1" vertex="1">
          <mxGeometry x="250" y="980" width="130" height="170" as="geometry" />
        </mxCell>
        <mxCell id="qy5zhYHzqHSsJufVuIio-47" value="" style="endArrow=classic;html=1;rounded=0;" parent="1" edge="1">
          <mxGeometry width="50" height="50" relative="1" as="geometry">
            <mxPoint x="1020" y="70" as="sourcePoint" />
            <mxPoint x="1350" y="-240" as="targetPoint" />
          </mxGeometry>
        </mxCell>
        <mxCell id="qy5zhYHzqHSsJufVuIio-49" value="會員登入&lt;span style=&quot;&quot;&gt;&amp;nbsp;註冊頁&lt;/span&gt;" style="text;html=1;strokeColor=none;fillColor=none;align=center;verticalAlign=middle;whiteSpace=wrap;rounded=0;" parent="1" vertex="1">
          <mxGeometry x="1360" y="-260" width="100" height="30" as="geometry" />
        </mxCell>
        <mxCell id="qy5zhYHzqHSsJufVuIio-52" value="" style="endArrow=classic;html=1;rounded=0;" parent="1" edge="1">
          <mxGeometry width="50" height="50" relative="1" as="geometry">
            <mxPoint x="936.9259259259261" y="349.9999999999998" as="sourcePoint" />
            <mxPoint x="715.1111111111115" y="-180" as="targetPoint" />
          </mxGeometry>
        </mxCell>
        <mxCell id="qy5zhYHzqHSsJufVuIio-54" value="漫畫介紹頁" style="text;html=1;strokeColor=none;fillColor=none;align=center;verticalAlign=middle;whiteSpace=wrap;rounded=0;" parent="1" vertex="1">
          <mxGeometry x="650" y="-220" width="100" height="30" as="geometry" />
        </mxCell>
        <mxCell id="qy5zhYHzqHSsJufVuIio-55" value="" style="endArrow=classic;html=1;rounded=0;" parent="1" target="qy5zhYHzqHSsJufVuIio-56" edge="1">
          <mxGeometry width="50" height="50" relative="1" as="geometry">
            <mxPoint x="675" y="-230" as="sourcePoint" />
            <mxPoint x="400" y="-390" as="targetPoint" />
          </mxGeometry>
        </mxCell>
        <mxCell id="qy5zhYHzqHSsJufVuIio-56" value="觀看頁" style="text;html=1;strokeColor=none;fillColor=none;align=center;verticalAlign=middle;whiteSpace=wrap;rounded=0;" parent="1" vertex="1">
          <mxGeometry x="390" y="-420" width="80" height="35" as="geometry" />
        </mxCell>
        <mxCell id="qy5zhYHzqHSsJufVuIio-57" value="" style="endArrow=classic;html=1;rounded=0;" parent="1" source="677b7b8949515195-2" target="qy5zhYHzqHSsJufVuIio-58" edge="1">
          <mxGeometry width="50" height="50" relative="1" as="geometry">
            <mxPoint x="-120" y="80" as="sourcePoint" />
            <mxPoint x="-300" y="-90" as="targetPoint" />
          </mxGeometry>
        </mxCell>
        <mxCell id="qy5zhYHzqHSsJufVuIio-58" value="網站介紹頁(有時間的話)" style="text;html=1;strokeColor=none;fillColor=none;align=center;verticalAlign=middle;whiteSpace=wrap;rounded=0;" parent="1" vertex="1">
          <mxGeometry x="-320" y="-105" width="70" height="30" as="geometry" />
        </mxCell>
        <mxCell id="qy5zhYHzqHSsJufVuIio-59" value="&lt;div style=&quot;&quot;&gt;&lt;span style=&quot;background-color: initial;&quot;&gt;&lt;font style=&quot;font-size: 14px;&quot;&gt;活動或排行直接做在這邊，&lt;/font&gt;&lt;/span&gt;&lt;/div&gt;&lt;font size=&quot;3&quot; style=&quot;&quot;&gt;&lt;div style=&quot;&quot;&gt;&lt;span style=&quot;background-color: initial;&quot;&gt;或是廣告&lt;/span&gt;&lt;/div&gt;&lt;/font&gt;" style="rounded=0;whiteSpace=wrap;html=1;align=center;" parent="1" vertex="1">
          <mxGeometry x="27.5" y="620" width="195" height="660" as="geometry" />
        </mxCell>
        <mxCell id="qy5zhYHzqHSsJufVuIio-60" value="" style="rounded=1;whiteSpace=wrap;html=1;" parent="1" vertex="1">
          <mxGeometry x="255" y="355" width="120" height="140" as="geometry" />
        </mxCell>
        <mxCell id="qy5zhYHzqHSsJufVuIio-61" value="&lt;b&gt;作品名&lt;/b&gt;" style="text;html=1;strokeColor=none;fillColor=none;align=center;verticalAlign=middle;whiteSpace=wrap;rounded=0;" parent="1" vertex="1">
          <mxGeometry x="285" y="490" width="60" height="30" as="geometry" />
        </mxCell>
        <mxCell id="qy5zhYHzqHSsJufVuIio-62" value="第x話： 標題" style="text;html=1;strokeColor=none;fillColor=none;align=center;verticalAlign=middle;whiteSpace=wrap;rounded=0;" parent="1" vertex="1">
          <mxGeometry x="230" y="505" width="120" height="30" as="geometry" />
        </mxCell>
        <mxCell id="qy5zhYHzqHSsJufVuIio-63" value="標籤" style="rounded=0;whiteSpace=wrap;html=1;" parent="1" vertex="1">
          <mxGeometry x="335" y="510" width="40" height="15" as="geometry" />
        </mxCell>
        <mxCell id="qy5zhYHzqHSsJufVuIio-64" value="FB" style="whiteSpace=wrap;html=1;aspect=fixed;" parent="1" vertex="1">
          <mxGeometry x="270" y="1400" width="40" height="40" as="geometry" />
        </mxCell>
        <mxCell id="qy5zhYHzqHSsJufVuIio-65" value="X" style="whiteSpace=wrap;html=1;aspect=fixed;" parent="1" vertex="1">
          <mxGeometry x="345" y="1400" width="40" height="40" as="geometry" />
        </mxCell>
        <mxCell id="qy5zhYHzqHSsJufVuIio-66" value="ig" style="whiteSpace=wrap;html=1;aspect=fixed;" parent="1" vertex="1">
          <mxGeometry x="410" y="1400" width="40" height="40" as="geometry" />
        </mxCell>
        <mxCell id="qy5zhYHzqHSsJufVuIio-67" value="版權" style="text;html=1;strokeColor=none;fillColor=none;align=center;verticalAlign=middle;whiteSpace=wrap;rounded=0;" parent="1" vertex="1">
          <mxGeometry x="170" y="1430" width="60" height="30" as="geometry" />
        </mxCell>
        <mxCell id="qy5zhYHzqHSsJufVuIio-68" value="聯絡資訊" style="text;html=1;strokeColor=none;fillColor=none;align=center;verticalAlign=middle;whiteSpace=wrap;rounded=0;" parent="1" vertex="1">
          <mxGeometry x="100" y="1430" width="60" height="30" as="geometry" />
        </mxCell>
        <mxCell id="qy5zhYHzqHSsJufVuIio-69" value="關於我們" style="text;html=1;strokeColor=none;fillColor=none;align=center;verticalAlign=middle;whiteSpace=wrap;rounded=0;" parent="1" vertex="1">
          <mxGeometry x="35" y="1430" width="60" height="30" as="geometry" />
        </mxCell>
        <mxCell id="qy5zhYHzqHSsJufVuIio-70" value="TO&lt;br&gt;TOP" style="rounded=0;whiteSpace=wrap;html=1;" parent="1" vertex="1">
          <mxGeometry x="1020" y="1360" width="60" height="60" as="geometry" />
        </mxCell>
        <mxCell id="XI-9wqLQDE8w4fQwFFHj-2" value="&lt;font style=&quot;font-size: 18px;&quot;&gt;首頁&lt;/font&gt;" style="whiteSpace=wrap;html=1;rounded=0;shadow=0;labelBackgroundColor=none;strokeWidth=1;fontFamily=Verdana;fontSize=28;align=center;comic=1;" parent="1" vertex="1">
          <mxGeometry x="40" y="330" width="165" height="50" as="geometry" />
        </mxCell>
        <mxCell id="XI-9wqLQDE8w4fQwFFHj-3" value="" style="ellipse;whiteSpace=wrap;html=1;aspect=fixed;" parent="1" vertex="1">
          <mxGeometry x="55" y="335" width="40" height="40" as="geometry" />
        </mxCell>
        <mxCell id="XI-9wqLQDE8w4fQwFFHj-10" value="&lt;font style=&quot;font-size: 18px;&quot;&gt;收藏&lt;/font&gt;" style="whiteSpace=wrap;html=1;rounded=0;shadow=0;labelBackgroundColor=none;strokeWidth=1;fontFamily=Verdana;fontSize=28;align=center;comic=1;" parent="1" vertex="1">
          <mxGeometry x="40" y="400" width="165" height="50" as="geometry" />
        </mxCell>
        <mxCell id="XI-9wqLQDE8w4fQwFFHj-11" value="" style="ellipse;whiteSpace=wrap;html=1;aspect=fixed;" parent="1" vertex="1">
          <mxGeometry x="55" y="405" width="40" height="40" as="geometry" />
        </mxCell>
        <mxCell id="XI-9wqLQDE8w4fQwFFHj-12" value="&lt;font style=&quot;font-size: 18px;&quot;&gt;排行&lt;/font&gt;" style="whiteSpace=wrap;html=1;rounded=0;shadow=0;labelBackgroundColor=none;strokeWidth=1;fontFamily=Verdana;fontSize=28;align=center;comic=1;" parent="1" vertex="1">
          <mxGeometry x="40" y="470" width="165" height="50" as="geometry" />
        </mxCell>
        <mxCell id="XI-9wqLQDE8w4fQwFFHj-13" value="" style="ellipse;whiteSpace=wrap;html=1;aspect=fixed;" parent="1" vertex="1">
          <mxGeometry x="55" y="475" width="40" height="40" as="geometry" />
        </mxCell>
        <mxCell id="XI-9wqLQDE8w4fQwFFHj-14" value="&lt;span style=&quot;font-size: 18px;&quot;&gt;活動&lt;/span&gt;" style="whiteSpace=wrap;html=1;rounded=0;shadow=0;labelBackgroundColor=none;strokeWidth=1;fontFamily=Verdana;fontSize=28;align=center;comic=1;" parent="1" vertex="1">
          <mxGeometry x="40" y="535" width="165" height="45" as="geometry" />
        </mxCell>
        <mxCell id="XI-9wqLQDE8w4fQwFFHj-15" value="" style="ellipse;whiteSpace=wrap;html=1;aspect=fixed;" parent="1" vertex="1">
          <mxGeometry x="55" y="540" width="40" height="40" as="geometry" />
        </mxCell>
        <mxCell id="M-ORlE6tbi8FyH72ve2a-2" value="" style="rounded=0;whiteSpace=wrap;html=1;" parent="1" vertex="1">
          <mxGeometry x="40" y="125" width="1030" height="185" as="geometry" />
        </mxCell>
        <mxCell id="M-ORlE6tbi8FyH72ve2a-12" value="" style="shape=ext;double=1;rounded=0;whiteSpace=wrap;html=1;" parent="1" vertex="1">
          <mxGeometry x="251.25" y="1175" width="130" height="180" as="geometry" />
        </mxCell>
        <mxCell id="M-ORlE6tbi8FyH72ve2a-13" value="" style="rounded=1;whiteSpace=wrap;html=1;" parent="1" vertex="1">
          <mxGeometry x="256.25" y="1180" width="120" height="140" as="geometry" />
        </mxCell>
        <mxCell id="M-ORlE6tbi8FyH72ve2a-14" value="&lt;b&gt;作品名&lt;/b&gt;" style="text;html=1;strokeColor=none;fillColor=none;align=center;verticalAlign=middle;whiteSpace=wrap;rounded=0;" parent="1" vertex="1">
          <mxGeometry x="286.25" y="1315" width="60" height="30" as="geometry" />
        </mxCell>
        <mxCell id="M-ORlE6tbi8FyH72ve2a-15" value="第x話： 標題" style="text;html=1;strokeColor=none;fillColor=none;align=center;verticalAlign=middle;whiteSpace=wrap;rounded=0;" parent="1" vertex="1">
          <mxGeometry x="231.25" y="1330" width="120" height="30" as="geometry" />
        </mxCell>
        <mxCell id="M-ORlE6tbi8FyH72ve2a-16" value="標籤" style="rounded=0;whiteSpace=wrap;html=1;" parent="1" vertex="1">
          <mxGeometry x="336.25" y="1335" width="40" height="15" as="geometry" />
        </mxCell>
        <mxCell id="M-ORlE6tbi8FyH72ve2a-17" value="" style="shape=ext;double=1;rounded=0;whiteSpace=wrap;html=1;" parent="1" vertex="1">
          <mxGeometry x="414" y="1175" width="130" height="180" as="geometry" />
        </mxCell>
        <mxCell id="M-ORlE6tbi8FyH72ve2a-18" value="" style="rounded=1;whiteSpace=wrap;html=1;" parent="1" vertex="1">
          <mxGeometry x="419" y="1180" width="120" height="140" as="geometry" />
        </mxCell>
        <mxCell id="M-ORlE6tbi8FyH72ve2a-19" value="&lt;b&gt;作品名&lt;/b&gt;" style="text;html=1;strokeColor=none;fillColor=none;align=center;verticalAlign=middle;whiteSpace=wrap;rounded=0;" parent="1" vertex="1">
          <mxGeometry x="449" y="1315" width="60" height="30" as="geometry" />
        </mxCell>
        <mxCell id="M-ORlE6tbi8FyH72ve2a-20" value="第x話： 標題" style="text;html=1;strokeColor=none;fillColor=none;align=center;verticalAlign=middle;whiteSpace=wrap;rounded=0;" parent="1" vertex="1">
          <mxGeometry x="394" y="1330" width="120" height="30" as="geometry" />
        </mxCell>
        <mxCell id="M-ORlE6tbi8FyH72ve2a-21" value="標籤" style="rounded=0;whiteSpace=wrap;html=1;" parent="1" vertex="1">
          <mxGeometry x="499" y="1335" width="40" height="15" as="geometry" />
        </mxCell>
        <mxCell id="M-ORlE6tbi8FyH72ve2a-22" value="" style="shape=ext;double=1;rounded=0;whiteSpace=wrap;html=1;" parent="1" vertex="1">
          <mxGeometry x="580.25" y="1175" width="130" height="180" as="geometry" />
        </mxCell>
        <mxCell id="M-ORlE6tbi8FyH72ve2a-23" value="" style="rounded=1;whiteSpace=wrap;html=1;" parent="1" vertex="1">
          <mxGeometry x="585.25" y="1180" width="120" height="140" as="geometry" />
        </mxCell>
        <mxCell id="M-ORlE6tbi8FyH72ve2a-24" value="&lt;b&gt;作品名&lt;/b&gt;" style="text;html=1;strokeColor=none;fillColor=none;align=center;verticalAlign=middle;whiteSpace=wrap;rounded=0;" parent="1" vertex="1">
          <mxGeometry x="615.25" y="1315" width="60" height="30" as="geometry" />
        </mxCell>
        <mxCell id="M-ORlE6tbi8FyH72ve2a-25" value="第x話： 標題" style="text;html=1;strokeColor=none;fillColor=none;align=center;verticalAlign=middle;whiteSpace=wrap;rounded=0;" parent="1" vertex="1">
          <mxGeometry x="560.25" y="1330" width="120" height="30" as="geometry" />
        </mxCell>
        <mxCell id="M-ORlE6tbi8FyH72ve2a-26" value="標籤" style="rounded=0;whiteSpace=wrap;html=1;" parent="1" vertex="1">
          <mxGeometry x="665.25" y="1335" width="40" height="15" as="geometry" />
        </mxCell>
        <mxCell id="HDDQ3VOI3vIhIuzoXOm3-1" value="" style="whiteSpace=wrap;html=1;rounded=0;shadow=0;labelBackgroundColor=none;strokeColor=#000000;strokeWidth=1;fillColor=none;fontFamily=Verdana;fontSize=12;fontColor=#000000;align=center;comic=1;" parent="1" vertex="1">
          <mxGeometry x="1520" y="-710" width="1060" height="1440" as="geometry" />
        </mxCell>
        <mxCell id="HDDQ3VOI3vIhIuzoXOm3-2" value="" style="rounded=0;whiteSpace=wrap;html=1;" parent="1" vertex="1">
          <mxGeometry x="1560" y="-580" width="180" height="410" as="geometry" />
        </mxCell>
        <mxCell id="HDDQ3VOI3vIhIuzoXOm3-3" value="" style="line;strokeWidth=2;html=1;" parent="1" vertex="1">
          <mxGeometry x="1520" y="-610" width="1070" height="10" as="geometry" />
        </mxCell>
        <mxCell id="HDDQ3VOI3vIhIuzoXOm3-4" value="作品名" style="rounded=0;whiteSpace=wrap;html=1;" parent="1" vertex="1">
          <mxGeometry x="2060" y="-560" width="340" height="60" as="geometry" />
        </mxCell>
        <mxCell id="HDDQ3VOI3vIhIuzoXOm3-5" value="" style="rounded=0;whiteSpace=wrap;html=1;" parent="1" vertex="1">
          <mxGeometry x="1780" y="-570" width="250" height="360" as="geometry" />
        </mxCell>
        <mxCell id="HDDQ3VOI3vIhIuzoXOm3-6" style="edgeStyle=orthogonalEdgeStyle;rounded=0;orthogonalLoop=1;jettySize=auto;html=1;exitX=0.5;exitY=1;exitDx=0;exitDy=0;" parent="1" source="HDDQ3VOI3vIhIuzoXOm3-4" target="HDDQ3VOI3vIhIuzoXOm3-4" edge="1">
          <mxGeometry relative="1" as="geometry" />
        </mxCell>
        <mxCell id="HDDQ3VOI3vIhIuzoXOm3-7" value="作者" style="rounded=0;whiteSpace=wrap;html=1;" parent="1" vertex="1">
          <mxGeometry x="2050" y="-470" width="225" height="20" as="geometry" />
        </mxCell>
        <mxCell id="HDDQ3VOI3vIhIuzoXOm3-8" value="描述" style="rounded=0;whiteSpace=wrap;html=1;" parent="1" vertex="1">
          <mxGeometry x="2060" y="-430" width="340" height="55" as="geometry" />
        </mxCell>
        <mxCell id="HDDQ3VOI3vIhIuzoXOm3-9" value="最新話" style="rounded=0;whiteSpace=wrap;html=1;" parent="1" vertex="1">
          <mxGeometry x="2060" y="-300" width="340" height="50" as="geometry" />
        </mxCell>
        <mxCell id="HDDQ3VOI3vIhIuzoXOm3-10" value="標籤" style="rounded=0;whiteSpace=wrap;html=1;" parent="1" vertex="1">
          <mxGeometry x="2060" y="-360" width="335" height="50" as="geometry" />
        </mxCell>
        <mxCell id="HDDQ3VOI3vIhIuzoXOm3-11" value="更新日期" style="rounded=1;whiteSpace=wrap;html=1;" parent="1" vertex="1">
          <mxGeometry x="2080" y="-240" width="130" height="40" as="geometry" />
        </mxCell>
        <mxCell id="HDDQ3VOI3vIhIuzoXOm3-13" value="下次更新時間" style="rounded=1;whiteSpace=wrap;html=1;" parent="1" vertex="1">
          <mxGeometry x="2240" y="-240" width="130" height="40" as="geometry" />
        </mxCell>
        <mxCell id="HDDQ3VOI3vIhIuzoXOm3-14" value="收藏" style="rounded=0;whiteSpace=wrap;html=1;" parent="1" vertex="1">
          <mxGeometry x="2070" y="-190" width="300" height="50" as="geometry" />
        </mxCell>
        <mxCell id="HDDQ3VOI3vIhIuzoXOm3-15" value="" style="rounded=0;whiteSpace=wrap;html=1;" parent="1" vertex="1">
          <mxGeometry x="1780" y="-110" width="600" height="360" as="geometry" />
        </mxCell>
        <mxCell id="HDDQ3VOI3vIhIuzoXOm3-16" value="話數" style="rounded=0;whiteSpace=wrap;html=1;" parent="1" vertex="1">
          <mxGeometry x="1800" y="-100" width="570" height="50" as="geometry" />
        </mxCell>
        <mxCell id="HDDQ3VOI3vIhIuzoXOm3-17" value="" style="rounded=0;whiteSpace=wrap;html=1;" parent="1" vertex="1">
          <mxGeometry x="1800" y="-15" width="570" height="50" as="geometry" />
        </mxCell>
        <mxCell id="HDDQ3VOI3vIhIuzoXOm3-18" value="" style="rounded=0;whiteSpace=wrap;html=1;" parent="1" vertex="1">
          <mxGeometry x="1800" y="70" width="570" height="50" as="geometry" />
        </mxCell>
        <mxCell id="HDDQ3VOI3vIhIuzoXOm3-19" value="" style="rounded=0;whiteSpace=wrap;html=1;" parent="1" vertex="1">
          <mxGeometry x="1800" y="155" width="570" height="50" as="geometry" />
        </mxCell>
        <mxCell id="HDDQ3VOI3vIhIuzoXOm3-21" value="也看了" style="rounded=0;whiteSpace=wrap;html=1;" parent="1" vertex="1">
          <mxGeometry x="2420" y="-570" width="150" height="1110" as="geometry" />
        </mxCell>
        <mxCell id="HDDQ3VOI3vIhIuzoXOm3-22" value="Banner" style="rounded=0;whiteSpace=wrap;html=1;" parent="1" vertex="1">
          <mxGeometry x="1560" y="-140" width="170" height="670" as="geometry" />
        </mxCell>
        <mxCell id="HDDQ3VOI3vIhIuzoXOm3-24" value="" style="line;strokeWidth=2;html=1;" parent="1" vertex="1">
          <mxGeometry x="1510" y="600" width="1070" height="10" as="geometry" />
        </mxCell>
        <mxCell id="HDDQ3VOI3vIhIuzoXOm3-27" value="" style="whiteSpace=wrap;html=1;rounded=0;shadow=0;labelBackgroundColor=none;strokeColor=#000000;strokeWidth=1;fillColor=none;fontFamily=Verdana;fontSize=12;fontColor=#000000;align=center;comic=1;" parent="1" vertex="1">
          <mxGeometry x="-360" y="-1690" width="1060" height="1440" as="geometry" />
        </mxCell>
        <mxCell id="HDDQ3VOI3vIhIuzoXOm3-28" value="" style="rounded=0;whiteSpace=wrap;html=1;" parent="1" vertex="1">
          <mxGeometry x="-300" y="-1610" width="920" height="1300" as="geometry" />
        </mxCell>
        <mxCell id="HDDQ3VOI3vIhIuzoXOm3-33" value="" style="group" parent="1" vertex="1" connectable="0">
          <mxGeometry x="-100" y="-320" width="540" height="60" as="geometry" />
        </mxCell>
        <mxCell id="HDDQ3VOI3vIhIuzoXOm3-29" value="" style="rounded=0;whiteSpace=wrap;html=1;movable=1;resizable=1;rotatable=1;deletable=1;editable=1;locked=0;connectable=1;" parent="HDDQ3VOI3vIhIuzoXOm3-33" vertex="1">
          <mxGeometry width="120" height="60" as="geometry" />
        </mxCell>
        <mxCell id="HDDQ3VOI3vIhIuzoXOm3-30" value="" style="rounded=0;whiteSpace=wrap;html=1;movable=1;resizable=1;rotatable=1;deletable=1;editable=1;locked=0;connectable=1;" parent="HDDQ3VOI3vIhIuzoXOm3-33" vertex="1">
          <mxGeometry x="210" width="120" height="60" as="geometry" />
        </mxCell>
        <mxCell id="HDDQ3VOI3vIhIuzoXOm3-31" value="" style="rounded=0;whiteSpace=wrap;html=1;movable=1;resizable=1;rotatable=1;deletable=1;editable=1;locked=0;connectable=1;" parent="HDDQ3VOI3vIhIuzoXOm3-33" vertex="1">
          <mxGeometry x="420" width="120" height="60" as="geometry" />
        </mxCell>
        <mxCell id="HDDQ3VOI3vIhIuzoXOm3-34" value="" style="group" parent="1" vertex="1" connectable="0">
          <mxGeometry x="-110" y="-1680" width="540" height="60" as="geometry" />
        </mxCell>
        <mxCell id="HDDQ3VOI3vIhIuzoXOm3-35" value="" style="rounded=0;whiteSpace=wrap;html=1;movable=1;resizable=1;rotatable=1;deletable=1;editable=1;locked=0;connectable=1;" parent="HDDQ3VOI3vIhIuzoXOm3-34" vertex="1">
          <mxGeometry width="120" height="60" as="geometry" />
        </mxCell>
        <mxCell id="HDDQ3VOI3vIhIuzoXOm3-36" value="" style="rounded=0;whiteSpace=wrap;html=1;movable=1;resizable=1;rotatable=1;deletable=1;editable=1;locked=0;connectable=1;" parent="HDDQ3VOI3vIhIuzoXOm3-34" vertex="1">
          <mxGeometry x="210" width="120" height="60" as="geometry" />
        </mxCell>
        <mxCell id="HDDQ3VOI3vIhIuzoXOm3-37" value="" style="rounded=0;whiteSpace=wrap;html=1;movable=1;resizable=1;rotatable=1;deletable=1;editable=1;locked=0;connectable=1;" parent="HDDQ3VOI3vIhIuzoXOm3-34" vertex="1">
          <mxGeometry x="420" width="120" height="60" as="geometry" />
        </mxCell>
        <mxCell id="QnRaWZTucYH99Vjs_rmc-4" value="收藏" style="rounded=0;whiteSpace=wrap;html=1;" parent="1" vertex="1">
          <mxGeometry x="2030" y="-931.2" width="360" height="80" as="geometry" />
        </mxCell>
        <mxCell id="QnRaWZTucYH99Vjs_rmc-5" value="" style="verticalLabelPosition=bottom;verticalAlign=top;html=1;shape=mxgraph.basic.heart" parent="1" vertex="1">
          <mxGeometry x="2070" y="-920" width="70" height="60" as="geometry" />
        </mxCell>
        <mxCell id="QnRaWZTucYH99Vjs_rmc-6" value="" style="endArrow=none;html=1;rounded=0;entryX=0.309;entryY=0.033;entryDx=0;entryDy=0;entryPerimeter=0;exitX=0.311;exitY=1.063;exitDx=0;exitDy=0;exitPerimeter=0;" parent="1" edge="1">
          <mxGeometry width="50" height="50" relative="1" as="geometry">
            <mxPoint x="2230.2000000000003" y="-850.0000000000001" as="sourcePoint" />
            <mxPoint x="2229.4999999999995" y="-932.4" as="targetPoint" />
          </mxGeometry>
        </mxCell>
        <mxCell id="ChapqngZKYLoNn2sGD0E-13" value="ab" style="rounded=0;whiteSpace=wrap;html=1;" parent="1" vertex="1">
          <mxGeometry x="1520" y="850" width="660" height="170" as="geometry" />
        </mxCell>
        <mxCell id="MGEFJSL_kFgZjdyrria_-3" value="漫畫名&lt;br&gt;章節名稱" style="rounded=0;whiteSpace=wrap;html=1;" parent="1" vertex="1">
          <mxGeometry x="1340" y="840" width="1060" height="100" as="geometry" />
        </mxCell>
        <mxCell id="ChapqngZKYLoNn2sGD0E-9" value="" style="whiteSpace=wrap;html=1;aspect=fixed;" parent="1" vertex="1">
          <mxGeometry x="1370" y="1345" width="80" height="80" as="geometry" />
        </mxCell>
        <mxCell id="ChapqngZKYLoNn2sGD0E-10" value="" style="whiteSpace=wrap;html=1;aspect=fixed;" parent="1" vertex="1">
          <mxGeometry x="2290" y="1340" width="80" height="80" as="geometry" />
        </mxCell>
        <mxCell id="ChapqngZKYLoNn2sGD0E-11" value="" style="triangle;whiteSpace=wrap;html=1;" parent="1" vertex="1">
          <mxGeometry x="2310" y="1340" width="60" height="80" as="geometry" />
        </mxCell>
        <mxCell id="ChapqngZKYLoNn2sGD0E-12" value="" style="triangle;whiteSpace=wrap;html=1;rotation=-180;" parent="1" vertex="1">
          <mxGeometry x="1376" y="1345" width="60" height="80" as="geometry" />
        </mxCell>
        <mxCell id="ChapqngZKYLoNn2sGD0E-17" value="頁數" style="rounded=0;whiteSpace=wrap;html=1;" parent="1" vertex="1">
          <mxGeometry x="1790" y="1740" width="120" height="60" as="geometry" />
        </mxCell>
        <mxCell id="96vDRccaFwVZ43e6inGg-1" value="" style="endArrow=classic;html=1;rounded=0;entryX=0;entryY=0.75;entryDx=0;entryDy=0;" edge="1" parent="1" target="XI-9wqLQDE8w4fQwFFHj-12">
          <mxGeometry width="50" height="50" relative="1" as="geometry">
            <mxPoint x="-220" y="440" as="sourcePoint" />
            <mxPoint x="-250" y="530" as="targetPoint" />
          </mxGeometry>
        </mxCell>
        <mxCell id="96vDRccaFwVZ43e6inGg-5" value="" style="rounded=0;whiteSpace=wrap;html=1;" vertex="1" parent="1">
          <mxGeometry x="-800" y="65" width="530" height="55" as="geometry" />
        </mxCell>
        <mxCell id="96vDRccaFwVZ43e6inGg-6" value="" style="rounded=0;whiteSpace=wrap;html=1;" vertex="1" parent="1">
          <mxGeometry x="-790" y="145" width="50" height="55" as="geometry" />
        </mxCell>
        <mxCell id="96vDRccaFwVZ43e6inGg-7" value="" style="rounded=0;whiteSpace=wrap;html=1;" vertex="1" parent="1">
          <mxGeometry x="-720" y="145" width="140" height="45" as="geometry" />
        </mxCell>
        <mxCell id="96vDRccaFwVZ43e6inGg-9" value="" style="rounded=0;whiteSpace=wrap;html=1;" vertex="1" parent="1">
          <mxGeometry x="-500" y="145" width="50" height="55" as="geometry" />
        </mxCell>
        <mxCell id="96vDRccaFwVZ43e6inGg-10" value="" style="rounded=0;whiteSpace=wrap;html=1;" vertex="1" parent="1">
          <mxGeometry x="-425" y="145" width="140" height="45" as="geometry" />
        </mxCell>
        <mxCell id="96vDRccaFwVZ43e6inGg-14" value="" style="group" vertex="1" connectable="0" parent="1">
          <mxGeometry x="-470" y="235" width="150" height="215" as="geometry" />
        </mxCell>
        <mxCell id="96vDRccaFwVZ43e6inGg-15" value="" style="rounded=0;whiteSpace=wrap;html=1;" vertex="1" parent="96vDRccaFwVZ43e6inGg-14">
          <mxGeometry width="150" height="155" as="geometry" />
        </mxCell>
        <mxCell id="96vDRccaFwVZ43e6inGg-16" value="" style="rounded=0;whiteSpace=wrap;html=1;" vertex="1" parent="96vDRccaFwVZ43e6inGg-14">
          <mxGeometry x="15" y="180" width="120" height="35" as="geometry" />
        </mxCell>
        <mxCell id="96vDRccaFwVZ43e6inGg-17" value="" style="group" vertex="1" connectable="0" parent="1">
          <mxGeometry x="-470" y="490" width="150" height="215" as="geometry" />
        </mxCell>
        <mxCell id="96vDRccaFwVZ43e6inGg-18" value="" style="rounded=0;whiteSpace=wrap;html=1;" vertex="1" parent="96vDRccaFwVZ43e6inGg-17">
          <mxGeometry width="150" height="155" as="geometry" />
        </mxCell>
        <mxCell id="96vDRccaFwVZ43e6inGg-19" value="" style="rounded=0;whiteSpace=wrap;html=1;" vertex="1" parent="96vDRccaFwVZ43e6inGg-17">
          <mxGeometry x="15" y="180" width="120" height="35" as="geometry" />
        </mxCell>
        <mxCell id="96vDRccaFwVZ43e6inGg-20" value="" style="group" vertex="1" connectable="0" parent="1">
          <mxGeometry x="-770" y="490" width="150" height="215" as="geometry" />
        </mxCell>
        <mxCell id="96vDRccaFwVZ43e6inGg-21" value="" style="rounded=0;whiteSpace=wrap;html=1;" vertex="1" parent="96vDRccaFwVZ43e6inGg-20">
          <mxGeometry width="150" height="155" as="geometry" />
        </mxCell>
        <mxCell id="96vDRccaFwVZ43e6inGg-22" value="" style="rounded=0;whiteSpace=wrap;html=1;" vertex="1" parent="96vDRccaFwVZ43e6inGg-20">
          <mxGeometry x="15" y="180" width="120" height="35" as="geometry" />
        </mxCell>
        <mxCell id="96vDRccaFwVZ43e6inGg-23" value="" style="group" vertex="1" connectable="0" parent="1">
          <mxGeometry x="-460" y="740" width="150" height="215" as="geometry" />
        </mxCell>
        <mxCell id="96vDRccaFwVZ43e6inGg-24" value="" style="rounded=0;whiteSpace=wrap;html=1;" vertex="1" parent="96vDRccaFwVZ43e6inGg-23">
          <mxGeometry width="150" height="155" as="geometry" />
        </mxCell>
        <mxCell id="96vDRccaFwVZ43e6inGg-25" value="" style="rounded=0;whiteSpace=wrap;html=1;" vertex="1" parent="96vDRccaFwVZ43e6inGg-23">
          <mxGeometry x="15" y="180" width="120" height="35" as="geometry" />
        </mxCell>
        <mxCell id="96vDRccaFwVZ43e6inGg-26" value="" style="group" vertex="1" connectable="0" parent="1">
          <mxGeometry x="-760" y="740" width="150" height="215" as="geometry" />
        </mxCell>
        <mxCell id="96vDRccaFwVZ43e6inGg-27" value="" style="rounded=0;whiteSpace=wrap;html=1;" vertex="1" parent="96vDRccaFwVZ43e6inGg-26">
          <mxGeometry width="150" height="155" as="geometry" />
        </mxCell>
        <mxCell id="96vDRccaFwVZ43e6inGg-28" value="" style="rounded=0;whiteSpace=wrap;html=1;" vertex="1" parent="96vDRccaFwVZ43e6inGg-26">
          <mxGeometry x="15" y="180" width="120" height="35" as="geometry" />
        </mxCell>
        <mxCell id="96vDRccaFwVZ43e6inGg-31" value="" style="rounded=0;whiteSpace=wrap;html=1;dashed=1;dashPattern=8 8;strokeWidth=3;" vertex="1" parent="1">
          <mxGeometry x="-1290" y="135" width="250" height="75" as="geometry" />
        </mxCell>
      </root>
    </mxGraphModel>
  </diagram>
</mxfile>
